<mxfile host="app.diagrams.net" modified="2024-01-21T16:09:58.151Z" agent="Mozilla/5.0 (Windows NT 10.0; Win64; x64) AppleWebKit/537.36 (KHTML, like Gecko) Chrome/120.0.0.0 Safari/537.36" etag="DGm9e90C0751DO7Z3khO" version="22.1.21" type="github">
  <diagram id="C5RBs43oDa-KdzZeNtuy" name="Page-1">
    <mxGraphModel dx="3000" dy="1491" grid="1" gridSize="10" guides="1" tooltips="1" connect="1" arrows="1" fold="1" page="1" pageScale="1" pageWidth="827" pageHeight="1169" math="0" shadow="0">
      <root>
        <mxCell id="WIyWlLk6GJQsqaUBKTNV-0" />
        <mxCell id="WIyWlLk6GJQsqaUBKTNV-1" parent="WIyWlLk6GJQsqaUBKTNV-0" />
        <mxCell id="L5ABKn0pirU3IeceEUaI-22" style="edgeStyle=orthogonalEdgeStyle;rounded=0;orthogonalLoop=1;jettySize=auto;html=1;exitX=0.5;exitY=1;exitDx=0;exitDy=0;entryX=0.5;entryY=0;entryDx=0;entryDy=0;" edge="1" parent="WIyWlLk6GJQsqaUBKTNV-1" source="L5ABKn0pirU3IeceEUaI-65" target="L5ABKn0pirU3IeceEUaI-21">
          <mxGeometry relative="1" as="geometry">
            <mxPoint x="460" y="157" as="sourcePoint" />
          </mxGeometry>
        </mxCell>
        <mxCell id="L5ABKn0pirU3IeceEUaI-27" style="edgeStyle=orthogonalEdgeStyle;rounded=0;orthogonalLoop=1;jettySize=auto;html=1;exitX=0.5;exitY=1;exitDx=0;exitDy=0;entryX=0;entryY=0.5;entryDx=0;entryDy=0;" edge="1" parent="WIyWlLk6GJQsqaUBKTNV-1" source="L5ABKn0pirU3IeceEUaI-68" target="L5ABKn0pirU3IeceEUaI-69">
          <mxGeometry relative="1" as="geometry">
            <mxPoint x="295" y="297" as="sourcePoint" />
            <mxPoint x="415" y="337" as="targetPoint" />
          </mxGeometry>
        </mxCell>
        <mxCell id="L5ABKn0pirU3IeceEUaI-76" style="edgeStyle=orthogonalEdgeStyle;rounded=0;orthogonalLoop=1;jettySize=auto;html=1;exitX=0.5;exitY=1;exitDx=0;exitDy=0;entryX=0;entryY=0.5;entryDx=0;entryDy=0;" edge="1" parent="WIyWlLk6GJQsqaUBKTNV-1" source="L5ABKn0pirU3IeceEUaI-11" target="L5ABKn0pirU3IeceEUaI-33">
          <mxGeometry relative="1" as="geometry">
            <Array as="points">
              <mxPoint x="235" y="625" />
              <mxPoint x="375" y="625" />
            </Array>
          </mxGeometry>
        </mxCell>
        <mxCell id="L5ABKn0pirU3IeceEUaI-11" value="Création d&#39;un nouvel audit&amp;nbsp;" style="shape=parallelogram;perimeter=parallelogramPerimeter;whiteSpace=wrap;html=1;fixedSize=1;" vertex="1" parent="WIyWlLk6GJQsqaUBKTNV-1">
          <mxGeometry x="140" y="557" width="190" height="40" as="geometry" />
        </mxCell>
        <mxCell id="L5ABKn0pirU3IeceEUaI-20" style="edgeStyle=orthogonalEdgeStyle;rounded=0;orthogonalLoop=1;jettySize=auto;html=1;exitX=0.5;exitY=1;exitDx=0;exitDy=0;" edge="1" parent="WIyWlLk6GJQsqaUBKTNV-1">
          <mxGeometry relative="1" as="geometry">
            <mxPoint x="650" y="857" as="sourcePoint" />
            <mxPoint x="650" y="857" as="targetPoint" />
          </mxGeometry>
        </mxCell>
        <mxCell id="L5ABKn0pirU3IeceEUaI-23" style="edgeStyle=orthogonalEdgeStyle;rounded=0;orthogonalLoop=1;jettySize=auto;html=1;exitX=0.5;exitY=1;exitDx=0;exitDy=0;entryX=0.5;entryY=0;entryDx=0;entryDy=0;" edge="1" parent="WIyWlLk6GJQsqaUBKTNV-1" source="L5ABKn0pirU3IeceEUaI-21" target="L5ABKn0pirU3IeceEUaI-69">
          <mxGeometry relative="1" as="geometry">
            <mxPoint x="457.5" y="317" as="targetPoint" />
          </mxGeometry>
        </mxCell>
        <mxCell id="L5ABKn0pirU3IeceEUaI-55" style="edgeStyle=orthogonalEdgeStyle;rounded=0;orthogonalLoop=1;jettySize=auto;html=1;exitX=0;exitY=0.5;exitDx=0;exitDy=0;entryX=0.5;entryY=0;entryDx=0;entryDy=0;" edge="1" parent="WIyWlLk6GJQsqaUBKTNV-1" source="L5ABKn0pirU3IeceEUaI-21" target="L5ABKn0pirU3IeceEUaI-68">
          <mxGeometry relative="1" as="geometry">
            <mxPoint x="295" y="267" as="targetPoint" />
          </mxGeometry>
        </mxCell>
        <mxCell id="L5ABKn0pirU3IeceEUaI-21" value="L&#39;utilisateur a déjà créé les projets" style="rhombus;whiteSpace=wrap;html=1;fillColor=#99CCFF;" vertex="1" parent="WIyWlLk6GJQsqaUBKTNV-1">
          <mxGeometry x="397.5" y="177" width="120" height="110" as="geometry" />
        </mxCell>
        <mxCell id="L5ABKn0pirU3IeceEUaI-24" value="Oui" style="text;html=1;strokeColor=none;fillColor=none;align=center;verticalAlign=middle;whiteSpace=wrap;rounded=0;" vertex="1" parent="WIyWlLk6GJQsqaUBKTNV-1">
          <mxGeometry x="450" y="287" width="60" height="30" as="geometry" />
        </mxCell>
        <mxCell id="L5ABKn0pirU3IeceEUaI-26" value="Non" style="text;html=1;strokeColor=none;fillColor=none;align=center;verticalAlign=middle;whiteSpace=wrap;rounded=0;" vertex="1" parent="WIyWlLk6GJQsqaUBKTNV-1">
          <mxGeometry x="340" y="197" width="60" height="30" as="geometry" />
        </mxCell>
        <mxCell id="L5ABKn0pirU3IeceEUaI-34" style="edgeStyle=orthogonalEdgeStyle;rounded=0;orthogonalLoop=1;jettySize=auto;html=1;exitX=0.5;exitY=1;exitDx=0;exitDy=0;entryX=0.5;entryY=0;entryDx=0;entryDy=0;" edge="1" parent="WIyWlLk6GJQsqaUBKTNV-1" source="L5ABKn0pirU3IeceEUaI-29" target="L5ABKn0pirU3IeceEUaI-33">
          <mxGeometry relative="1" as="geometry" />
        </mxCell>
        <mxCell id="L5ABKn0pirU3IeceEUaI-56" style="edgeStyle=orthogonalEdgeStyle;rounded=0;orthogonalLoop=1;jettySize=auto;html=1;exitX=0;exitY=0.5;exitDx=0;exitDy=0;entryX=0.5;entryY=0;entryDx=0;entryDy=0;" edge="1" parent="WIyWlLk6GJQsqaUBKTNV-1" source="L5ABKn0pirU3IeceEUaI-29" target="L5ABKn0pirU3IeceEUaI-11">
          <mxGeometry relative="1" as="geometry" />
        </mxCell>
        <mxCell id="L5ABKn0pirU3IeceEUaI-29" value="Le projet sélectionné a-t-il déjà au moins un audit en cours ?" style="rhombus;whiteSpace=wrap;html=1;spacing=2;perimeterSpacing=0;align=center;fillColor=#99CCFF;" vertex="1" parent="WIyWlLk6GJQsqaUBKTNV-1">
          <mxGeometry x="266.25" y="467" width="387.5" height="100" as="geometry" />
        </mxCell>
        <mxCell id="L5ABKn0pirU3IeceEUaI-64" style="edgeStyle=orthogonalEdgeStyle;rounded=0;orthogonalLoop=1;jettySize=auto;html=1;exitX=0.5;exitY=1;exitDx=0;exitDy=0;entryX=0.5;entryY=0;entryDx=0;entryDy=0;" edge="1" parent="WIyWlLk6GJQsqaUBKTNV-1" source="L5ABKn0pirU3IeceEUaI-33" target="L5ABKn0pirU3IeceEUaI-62">
          <mxGeometry relative="1" as="geometry" />
        </mxCell>
        <mxCell id="L5ABKn0pirU3IeceEUaI-33" value="Poursuite d&#39;un audit en cours" style="shape=parallelogram;perimeter=parallelogramPerimeter;whiteSpace=wrap;html=1;fixedSize=1;" vertex="1" parent="WIyWlLk6GJQsqaUBKTNV-1">
          <mxGeometry x="365" y="607" width="190" height="35" as="geometry" />
        </mxCell>
        <mxCell id="L5ABKn0pirU3IeceEUaI-36" value="Oui" style="text;html=1;strokeColor=none;fillColor=none;align=center;verticalAlign=middle;whiteSpace=wrap;rounded=0;" vertex="1" parent="WIyWlLk6GJQsqaUBKTNV-1">
          <mxGeometry x="450" y="567" width="60" height="30" as="geometry" />
        </mxCell>
        <mxCell id="L5ABKn0pirU3IeceEUaI-37" value="Non" style="text;html=1;strokeColor=none;fillColor=none;align=center;verticalAlign=middle;whiteSpace=wrap;rounded=0;" vertex="1" parent="WIyWlLk6GJQsqaUBKTNV-1">
          <mxGeometry x="220" y="487" width="60" height="30" as="geometry" />
        </mxCell>
        <mxCell id="L5ABKn0pirU3IeceEUaI-45" style="edgeStyle=orthogonalEdgeStyle;rounded=0;orthogonalLoop=1;jettySize=auto;html=1;exitX=0.5;exitY=1;exitDx=0;exitDy=0;entryX=0.5;entryY=0;entryDx=0;entryDy=0;" edge="1" parent="WIyWlLk6GJQsqaUBKTNV-1" source="L5ABKn0pirU3IeceEUaI-62" target="L5ABKn0pirU3IeceEUaI-44">
          <mxGeometry relative="1" as="geometry">
            <mxPoint x="460" y="747" as="sourcePoint" />
          </mxGeometry>
        </mxCell>
        <mxCell id="L5ABKn0pirU3IeceEUaI-49" style="edgeStyle=orthogonalEdgeStyle;rounded=0;orthogonalLoop=1;jettySize=auto;html=1;exitX=0.5;exitY=1;exitDx=0;exitDy=0;entryX=0.5;entryY=0;entryDx=0;entryDy=0;" edge="1" parent="WIyWlLk6GJQsqaUBKTNV-1" source="L5ABKn0pirU3IeceEUaI-48" target="L5ABKn0pirU3IeceEUaI-52">
          <mxGeometry relative="1" as="geometry">
            <mxPoint x="460" y="997" as="targetPoint" />
          </mxGeometry>
        </mxCell>
        <mxCell id="L5ABKn0pirU3IeceEUaI-44" value="Affichage des résultats de la section « Essentiel »" style="rounded=0;whiteSpace=wrap;html=1;fillColor=#C6BEEE;" vertex="1" parent="WIyWlLk6GJQsqaUBKTNV-1">
          <mxGeometry x="390" y="777" width="140" height="40" as="geometry" />
        </mxCell>
        <mxCell id="L5ABKn0pirU3IeceEUaI-77" style="edgeStyle=orthogonalEdgeStyle;rounded=0;orthogonalLoop=1;jettySize=auto;html=1;exitX=1;exitY=0.5;exitDx=0;exitDy=0;entryX=1;entryY=0.5;entryDx=0;entryDy=0;" edge="1" parent="WIyWlLk6GJQsqaUBKTNV-1" source="L5ABKn0pirU3IeceEUaI-78" target="L5ABKn0pirU3IeceEUaI-70">
          <mxGeometry relative="1" as="geometry">
            <Array as="points">
              <mxPoint x="690" y="1035" />
              <mxPoint x="690" y="405" />
            </Array>
          </mxGeometry>
        </mxCell>
        <mxCell id="L5ABKn0pirU3IeceEUaI-79" style="edgeStyle=orthogonalEdgeStyle;rounded=0;orthogonalLoop=1;jettySize=auto;html=1;exitX=0.5;exitY=1;exitDx=0;exitDy=0;entryX=0.5;entryY=0;entryDx=0;entryDy=0;" edge="1" parent="WIyWlLk6GJQsqaUBKTNV-1" source="L5ABKn0pirU3IeceEUaI-52" target="L5ABKn0pirU3IeceEUaI-78">
          <mxGeometry relative="1" as="geometry" />
        </mxCell>
        <mxCell id="L5ABKn0pirU3IeceEUaI-52" value="Calcul du score de l&#39;audit" style="rounded=0;whiteSpace=wrap;html=1;" vertex="1" parent="WIyWlLk6GJQsqaUBKTNV-1">
          <mxGeometry x="400" y="937" width="120" height="60" as="geometry" />
        </mxCell>
        <mxCell id="L5ABKn0pirU3IeceEUaI-54" value="" style="edgeStyle=orthogonalEdgeStyle;rounded=0;orthogonalLoop=1;jettySize=auto;html=1;exitX=0.5;exitY=1;exitDx=0;exitDy=0;entryX=0.5;entryY=0;entryDx=0;entryDy=0;" edge="1" parent="WIyWlLk6GJQsqaUBKTNV-1" source="L5ABKn0pirU3IeceEUaI-44" target="L5ABKn0pirU3IeceEUaI-48">
          <mxGeometry relative="1" as="geometry">
            <mxPoint x="460" y="947" as="targetPoint" />
            <mxPoint x="460" y="817" as="sourcePoint" />
          </mxGeometry>
        </mxCell>
        <mxCell id="L5ABKn0pirU3IeceEUaI-48" value="&lt;div&gt;- Section « Grill NR »&lt;/div&gt;&lt;div&gt;- Section « Onglet Technique »&lt;/div&gt;" style="rounded=0;whiteSpace=wrap;html=1;dashed=1;" vertex="1" parent="WIyWlLk6GJQsqaUBKTNV-1">
          <mxGeometry x="360" y="847" width="200" height="60" as="geometry" />
        </mxCell>
        <mxCell id="L5ABKn0pirU3IeceEUaI-66" style="edgeStyle=orthogonalEdgeStyle;rounded=0;orthogonalLoop=1;jettySize=auto;html=1;exitX=0.5;exitY=1;exitDx=0;exitDy=0;entryX=0.5;entryY=0;entryDx=0;entryDy=0;" edge="1" parent="WIyWlLk6GJQsqaUBKTNV-1" source="L5ABKn0pirU3IeceEUaI-67" target="L5ABKn0pirU3IeceEUaI-65">
          <mxGeometry relative="1" as="geometry">
            <mxPoint x="460" y="95" as="sourcePoint" />
          </mxGeometry>
        </mxCell>
        <mxCell id="L5ABKn0pirU3IeceEUaI-62" value="Finalisation de la section&amp;nbsp;&amp;nbsp;&lt;br&gt;« Essentiel »" style="shape=parallelogram;perimeter=parallelogramPerimeter;whiteSpace=wrap;html=1;fixedSize=1;" vertex="1" parent="WIyWlLk6GJQsqaUBKTNV-1">
          <mxGeometry x="365" y="675" width="190" height="60" as="geometry" />
        </mxCell>
        <mxCell id="L5ABKn0pirU3IeceEUaI-65" value="Visualisation des instructions" style="rounded=0;whiteSpace=wrap;html=1;fillColor=#C6BEEE;" vertex="1" parent="WIyWlLk6GJQsqaUBKTNV-1">
          <mxGeometry x="400" y="115" width="120" height="40" as="geometry" />
        </mxCell>
        <mxCell id="L5ABKn0pirU3IeceEUaI-67" value="Login dans l&#39;application" style="ellipse;whiteSpace=wrap;html=1;" vertex="1" parent="WIyWlLk6GJQsqaUBKTNV-1">
          <mxGeometry x="400" y="45" width="120" height="40" as="geometry" />
        </mxCell>
        <mxCell id="L5ABKn0pirU3IeceEUaI-68" value="Création d&#39;un nouveau projet" style="shape=parallelogram;perimeter=parallelogramPerimeter;whiteSpace=wrap;html=1;fixedSize=1;" vertex="1" parent="WIyWlLk6GJQsqaUBKTNV-1">
          <mxGeometry x="230" y="257" width="120" height="60" as="geometry" />
        </mxCell>
        <mxCell id="L5ABKn0pirU3IeceEUaI-72" style="edgeStyle=orthogonalEdgeStyle;rounded=0;orthogonalLoop=1;jettySize=auto;html=1;exitX=0.5;exitY=1;exitDx=0;exitDy=0;entryX=0.5;entryY=0;entryDx=0;entryDy=0;" edge="1" parent="WIyWlLk6GJQsqaUBKTNV-1" source="L5ABKn0pirU3IeceEUaI-69" target="L5ABKn0pirU3IeceEUaI-70">
          <mxGeometry relative="1" as="geometry" />
        </mxCell>
        <mxCell id="L5ABKn0pirU3IeceEUaI-69" value="Affichage de tous les projets" style="rounded=0;whiteSpace=wrap;html=1;fillColor=#C6BEEE;" vertex="1" parent="WIyWlLk6GJQsqaUBKTNV-1">
          <mxGeometry x="406.25" y="317" width="102.5" height="40" as="geometry" />
        </mxCell>
        <mxCell id="L5ABKn0pirU3IeceEUaI-70" value="Affichage de tous les audits du projet sélectionné (avec le score associé)" style="rounded=0;whiteSpace=wrap;html=1;fillColor=#C6BEEE;" vertex="1" parent="WIyWlLk6GJQsqaUBKTNV-1">
          <mxGeometry x="357.5" y="375" width="200" height="60" as="geometry" />
        </mxCell>
        <mxCell id="L5ABKn0pirU3IeceEUaI-73" style="edgeStyle=orthogonalEdgeStyle;rounded=0;orthogonalLoop=1;jettySize=auto;html=1;exitX=0.5;exitY=1;exitDx=0;exitDy=0;entryX=0.501;entryY=0.024;entryDx=0;entryDy=0;entryPerimeter=0;" edge="1" parent="WIyWlLk6GJQsqaUBKTNV-1" source="L5ABKn0pirU3IeceEUaI-70" target="L5ABKn0pirU3IeceEUaI-29">
          <mxGeometry relative="1" as="geometry" />
        </mxCell>
        <mxCell id="L5ABKn0pirU3IeceEUaI-78" value="Fin" style="ellipse;whiteSpace=wrap;html=1;" vertex="1" parent="WIyWlLk6GJQsqaUBKTNV-1">
          <mxGeometry x="425" y="1015" width="70" height="40" as="geometry" />
        </mxCell>
      </root>
    </mxGraphModel>
  </diagram>
</mxfile>
